<svg xmlns="http://www.w3.org/2000/svg" xmlns:xlink="http://www.w3.org/1999/xlink" width="500" zoomAndPan="magnify" viewBox="0 0 375 374.999991" height="500" preserveAspectRatio="xMidYMid meet" version="1.0"><defs><g/><clipPath id="4575f8180a"><path d="M 30.75 176.28125 L 75 176.28125 L 75 191 L 30.75 191 Z M 30.75 176.28125 " clip-rule="nonzero"/></clipPath><clipPath id="844af46520"><path d="M 30.75 198 L 75.75 198 L 75.75 221.28125 L 30.75 221.28125 Z M 30.75 198 " clip-rule="nonzero"/></clipPath><clipPath id="6785284a47"><path d="M 30.75 187 L 39 187 L 39 195 L 30.75 195 Z M 30.75 187 " clip-rule="nonzero"/></clipPath><clipPath id="c511d07f00"><path d="M 176.65625 174.78125 L 204 174.78125 L 204 213 L 176.65625 213 Z M 176.65625 174.78125 " clip-rule="nonzero"/></clipPath><clipPath id="b783369a38"><path d="M 183 181 L 210.40625 181 L 210.40625 219.78125 L 183 219.78125 Z M 183 181 " clip-rule="nonzero"/></clipPath></defs><rect x="-37.5" width="450" fill="#ffffff" y="-37.499999" height="449.999989" fill-opacity="1"/><rect x="-37.5" width="450" fill="#ffffff" y="-37.499999" height="449.999989" fill-opacity="1"/><g fill="#0c0b0b" fill-opacity="1"><g transform="translate(78.933518, 217.512087)"><g><path d="M 19.359375 0 L 1.796875 0 L 1.796875 -20.734375 L 5.421875 -20.734375 L 5.421875 -3.625 L 19.359375 -3.625 Z M 19.359375 0 "/></g></g></g><g fill="#0c0b0b" fill-opacity="1"><g transform="translate(102.485841, 217.512087)"><g><path d="M 16.3125 0 L 11.265625 0 C 9.816406 0 8.476562 -0.265625 7.25 -0.796875 C 6.03125 -1.328125 4.96875 -2.070312 4.0625 -3.03125 C 3.15625 -4 2.453125 -5.125 1.953125 -6.40625 C 1.453125 -7.6875 1.203125 -9.078125 1.203125 -10.578125 C 1.203125 -12.609375 1.640625 -14.382812 2.515625 -15.90625 C 3.390625 -17.425781 4.585938 -18.609375 6.109375 -19.453125 C 7.628906 -20.304688 9.347656 -20.734375 11.265625 -20.734375 L 16.3125 -20.734375 C 18.3125 -20.734375 20.070312 -20.304688 21.59375 -19.453125 C 23.125 -18.597656 24.316406 -17.410156 25.171875 -15.890625 C 26.035156 -14.367188 26.46875 -12.597656 26.46875 -10.578125 C 26.46875 -9.078125 26.210938 -7.6875 25.703125 -6.40625 C 25.203125 -5.125 24.5 -4 23.59375 -3.03125 C 22.6875 -2.070312 21.613281 -1.328125 20.375 -0.796875 C 19.144531 -0.265625 17.789062 0 16.3125 0 Z M 11.265625 -3.625 L 16.3125 -3.625 C 17.582031 -3.625 18.707031 -3.914062 19.6875 -4.5 C 20.664062 -5.09375 21.4375 -5.898438 22 -6.921875 C 22.5625 -7.953125 22.84375 -9.113281 22.84375 -10.40625 C 22.84375 -11.71875 22.5625 -12.875 22 -13.875 C 21.4375 -14.882812 20.664062 -15.675781 19.6875 -16.25 C 18.707031 -16.820312 17.582031 -17.109375 16.3125 -17.109375 L 11.265625 -17.109375 C 10.023438 -17.109375 8.921875 -16.820312 7.953125 -16.25 C 6.984375 -15.675781 6.21875 -14.882812 5.65625 -13.875 C 5.09375 -12.875 4.8125 -11.71875 4.8125 -10.40625 C 4.8125 -9.113281 5.085938 -7.953125 5.640625 -6.921875 C 6.191406 -5.898438 6.957031 -5.09375 7.9375 -4.5 C 8.914062 -3.914062 10.023438 -3.625 11.265625 -3.625 Z M 11.265625 -3.625 "/></g></g></g><g fill="#0c0b0b" fill-opacity="1"><g transform="translate(133.479718, 217.512087)"><g><path d="M 21.265625 -0.859375 L 18.078125 -6.921875 L 14.859375 -0.859375 C 14.671875 -0.472656 14.410156 -0.1875 14.078125 0 C 13.742188 0.1875 13.382812 0.28125 13 0.28125 C 12.164062 0.28125 11.539062 -0.0976562 11.125 -0.859375 L 0.40625 -20.734375 L 4.734375 -20.734375 L 13.109375 -4.796875 L 16.25 -10.4375 L 10.859375 -20.734375 L 15.234375 -20.734375 L 23.234375 -4.796875 L 31.6875 -20.734375 L 35.734375 -20.734375 L 25.015625 -0.859375 C 24.796875 -0.472656 24.519531 -0.1875 24.1875 0 C 23.863281 0.1875 23.507812 0.28125 23.125 0.28125 C 22.75 0.28125 22.398438 0.1875 22.078125 0 C 21.753906 -0.1875 21.484375 -0.472656 21.265625 -0.859375 Z M 21.265625 -0.859375 "/></g></g></g><g fill="#0c0b0b" fill-opacity="1"><g transform="translate(173.035075, 217.512087)"><g/></g></g><g fill="#0c0b0b" fill-opacity="1"><g transform="translate(184.812069, 217.512087)"><g/></g></g><g fill="#0c0b0b" fill-opacity="1"><g transform="translate(196.589063, 217.512087)"><g/></g></g><g fill="#0c0b0b" fill-opacity="1"><g transform="translate(208.367107, 217.512087)"><g><path d="M 16.3125 0 L 11.265625 0 C 9.816406 0 8.476562 -0.265625 7.25 -0.796875 C 6.03125 -1.328125 4.96875 -2.070312 4.0625 -3.03125 C 3.15625 -4 2.453125 -5.125 1.953125 -6.40625 C 1.453125 -7.6875 1.203125 -9.078125 1.203125 -10.578125 C 1.203125 -12.609375 1.640625 -14.382812 2.515625 -15.90625 C 3.390625 -17.425781 4.585938 -18.609375 6.109375 -19.453125 C 7.628906 -20.304688 9.347656 -20.734375 11.265625 -20.734375 L 16.3125 -20.734375 C 18.3125 -20.734375 20.070312 -20.304688 21.59375 -19.453125 C 23.125 -18.597656 24.316406 -17.410156 25.171875 -15.890625 C 26.035156 -14.367188 26.46875 -12.597656 26.46875 -10.578125 C 26.46875 -9.078125 26.210938 -7.6875 25.703125 -6.40625 C 25.203125 -5.125 24.5 -4 23.59375 -3.03125 C 22.6875 -2.070312 21.613281 -1.328125 20.375 -0.796875 C 19.144531 -0.265625 17.789062 0 16.3125 0 Z M 11.265625 -3.625 L 16.3125 -3.625 C 17.582031 -3.625 18.707031 -3.914062 19.6875 -4.5 C 20.664062 -5.09375 21.4375 -5.898438 22 -6.921875 C 22.5625 -7.953125 22.84375 -9.113281 22.84375 -10.40625 C 22.84375 -11.71875 22.5625 -12.875 22 -13.875 C 21.4375 -14.882812 20.664062 -15.675781 19.6875 -16.25 C 18.707031 -16.820312 17.582031 -17.109375 16.3125 -17.109375 L 11.265625 -17.109375 C 10.023438 -17.109375 8.921875 -16.820312 7.953125 -16.25 C 6.984375 -15.675781 6.21875 -14.882812 5.65625 -13.875 C 5.09375 -12.875 4.8125 -11.71875 4.8125 -10.40625 C 4.8125 -9.113281 5.085938 -7.953125 5.640625 -6.921875 C 6.191406 -5.898438 6.957031 -5.09375 7.9375 -4.5 C 8.914062 -3.914062 10.023438 -3.625 11.265625 -3.625 Z M 11.265625 -3.625 "/></g></g></g><g fill="#0c0b0b" fill-opacity="1"><g transform="translate(239.360984, 217.512087)"><g><path d="M 23.78125 0 L 11.265625 0 C 9.816406 0 8.476562 -0.265625 7.25 -0.796875 C 6.03125 -1.328125 4.96875 -2.070312 4.0625 -3.03125 C 3.15625 -4 2.453125 -5.125 1.953125 -6.40625 C 1.453125 -7.6875 1.203125 -9.078125 1.203125 -10.578125 C 1.203125 -12.609375 1.640625 -14.382812 2.515625 -15.90625 C 3.390625 -17.425781 4.585938 -18.609375 6.109375 -19.453125 C 7.628906 -20.304688 9.347656 -20.734375 11.265625 -20.734375 L 22.5 -20.734375 L 22.5 -17.109375 L 11.265625 -17.109375 C 10.023438 -17.109375 8.921875 -16.820312 7.953125 -16.25 C 6.984375 -15.675781 6.21875 -14.882812 5.65625 -13.875 C 5.09375 -12.875 4.8125 -11.71875 4.8125 -10.40625 C 4.8125 -9.113281 5.085938 -7.953125 5.640625 -6.921875 C 6.191406 -5.898438 6.957031 -5.09375 7.9375 -4.5 C 8.914062 -3.914062 10.023438 -3.625 11.265625 -3.625 L 20.125 -3.625 L 20.125 -9.015625 L 10.78125 -9.015625 L 10.78125 -12.0625 L 23.78125 -12.0625 Z M 23.78125 0 "/></g></g></g><g fill="#0c0b0b" fill-opacity="1"><g transform="translate(268.073929, 217.512087)"><g><path d="M 5.625 0 L 2 0 L 2 -20.734375 L 5.625 -20.734375 Z M 5.625 0 "/></g></g></g><g fill="#0c0b0b" fill-opacity="1"><g transform="translate(279.081101, 217.512087)"><g><path d="M 22.5 0 L 11.265625 0 C 9.816406 0 8.476562 -0.265625 7.25 -0.796875 C 6.03125 -1.328125 4.96875 -2.070312 4.0625 -3.03125 C 3.15625 -4 2.453125 -5.125 1.953125 -6.40625 C 1.453125 -7.6875 1.203125 -9.078125 1.203125 -10.578125 C 1.203125 -12.609375 1.640625 -14.382812 2.515625 -15.90625 C 3.390625 -17.425781 4.585938 -18.609375 6.109375 -19.453125 C 7.628906 -20.304688 9.347656 -20.734375 11.265625 -20.734375 L 22.5 -20.734375 L 22.5 -17.109375 L 11.265625 -17.109375 C 10.023438 -17.109375 8.921875 -16.820312 7.953125 -16.25 C 6.984375 -15.675781 6.21875 -14.882812 5.65625 -13.875 C 5.09375 -12.875 4.8125 -11.71875 4.8125 -10.40625 C 4.8125 -9.113281 5.085938 -7.953125 5.640625 -6.921875 C 6.191406 -5.898438 6.957031 -5.09375 7.9375 -4.5 C 8.914062 -3.914062 10.023438 -3.625 11.265625 -3.625 L 22.5 -3.625 Z M 22.5 0 "/></g></g></g><g fill="#0c0b0b" fill-opacity="1"><g transform="translate(306.111856, 217.512087)"><g><path d="M 17.34375 0 L 1.796875 0 L 1.796875 -3.625 L 17.34375 -3.625 C 18.3125 -3.625 19.054688 -3.867188 19.578125 -4.359375 C 20.097656 -4.859375 20.359375 -5.515625 20.359375 -6.328125 C 20.359375 -7.222656 20.097656 -7.894531 19.578125 -8.34375 C 19.054688 -8.789062 18.3125 -9.015625 17.34375 -9.015625 L 7.8125 -9.015625 C 6.519531 -9.015625 5.394531 -9.269531 4.4375 -9.78125 C 3.488281 -10.289062 2.757812 -10.988281 2.25 -11.875 C 1.738281 -12.757812 1.484375 -13.769531 1.484375 -14.90625 C 1.484375 -16.03125 1.726562 -17.03125 2.21875 -17.90625 C 2.71875 -18.78125 3.441406 -19.46875 4.390625 -19.96875 C 5.335938 -20.476562 6.5 -20.734375 7.875 -20.734375 L 22.75 -20.734375 L 22.75 -17.109375 L 7.875 -17.109375 C 7.050781 -17.109375 6.40625 -16.878906 5.9375 -16.421875 C 5.476562 -15.960938 5.25 -15.347656 5.25 -14.578125 C 5.25 -13.796875 5.476562 -13.179688 5.9375 -12.734375 C 6.40625 -12.285156 7.039062 -12.0625 7.84375 -12.0625 L 17.34375 -12.0625 C 19.425781 -12.0625 21.019531 -11.566406 22.125 -10.578125 C 23.226562 -9.585938 23.78125 -8.085938 23.78125 -6.078125 C 23.78125 -4.910156 23.539062 -3.867188 23.0625 -2.953125 C 22.59375 -2.046875 21.878906 -1.328125 20.921875 -0.796875 C 19.972656 -0.265625 18.78125 0 17.34375 0 Z M 17.34375 0 "/></g></g></g><g fill="#0c0b0b" fill-opacity="1"><g transform="translate(334.601474, 217.512087)"><g/></g></g><g clip-path="url(#4575f8180a)"><path fill="#ff6e0c" d="M 38.519531 184.058594 L 53.390625 184.058594 C 58.324219 184.058594 62.707031 186.480469 65.40625 190.199219 L 74.277344 190.199219 C 73.152344 187.507812 71.503906 185.039062 69.382812 182.917969 C 65.109375 178.644531 59.429688 176.292969 53.390625 176.292969 L 30.75 176.292969 C 30.75 180.582031 34.226562 184.058594 38.519531 184.058594 Z M 38.519531 184.058594 " fill-opacity="1" fill-rule="nonzero"/></g><g clip-path="url(#844af46520)"><path fill="#ff6e0c" d="M 68.238281 198.910156 L 53.386719 198.910156 C 53.386719 203.21875 56.878906 206.710938 61.1875 206.710938 L 66.019531 206.710938 C 63.402344 210.941406 58.71875 213.761719 53.390625 213.761719 C 45.199219 213.761719 38.539062 207.101562 38.539062 198.910156 L 30.769531 198.910156 C 30.769531 204.953125 33.121094 210.632812 37.394531 214.90625 C 41.664062 219.179688 47.347656 221.53125 53.386719 221.53125 C 59.429688 221.53125 65.109375 219.179688 69.382812 214.90625 C 73.65625 210.632812 76.007812 204.953125 76.007812 198.910156 Z M 68.238281 198.910156 " fill-opacity="1" fill-rule="nonzero"/></g><g clip-path="url(#6785284a47)"><path fill="#ff6e0c" d="M 34.964844 194.890625 L 38.484375 194.890625 L 38.484375 190.921875 C 38.484375 188.839844 36.796875 187.152344 34.71875 187.152344 L 30.75 187.152344 L 30.75 190.675781 C 30.75 193.003906 32.636719 194.890625 34.964844 194.890625 Z M 34.964844 194.890625 " fill-opacity="1" fill-rule="nonzero"/></g><g clip-path="url(#c511d07f00)"><path fill="#ff6e0c" d="M 180.921875 179.046875 L 180.921875 212.460938 C 180.3125 212.3125 179.746094 212.066406 179.222656 211.726562 C 178.695312 211.386719 178.238281 210.972656 177.851562 210.480469 C 177.464844 209.988281 177.167969 209.445312 176.964844 208.851562 C 176.761719 208.261719 176.65625 207.652344 176.65625 207.023438 L 176.65625 174.78125 Z M 199.039062 208.355469 L 203.304688 212.621094 L 190.511719 212.621094 L 190.511719 208.355469 Z M 199.039062 208.355469 " fill-opacity="1" fill-rule="evenodd"/></g><g clip-path="url(#b783369a38)"><path fill="#ff6e0c" d="M 183.585938 181.710938 L 187.847656 185.972656 L 187.847656 213.953125 C 187.847656 214.128906 187.882812 214.296875 187.949219 214.460938 C 188.019531 214.625 188.113281 214.769531 188.238281 214.894531 C 188.363281 215.019531 188.507812 215.117188 188.671875 215.183594 C 188.835938 215.25 189.003906 215.285156 189.183594 215.285156 L 205.96875 215.285156 L 210.230469 219.550781 L 189.175781 219.550781 C 188.808594 219.550781 188.445312 219.515625 188.085938 219.441406 C 187.726562 219.371094 187.375 219.265625 187.035156 219.125 C 186.695312 218.984375 186.375 218.808594 186.070312 218.605469 C 185.761719 218.402344 185.480469 218.167969 185.222656 217.910156 C 184.960938 217.648438 184.730469 217.367188 184.527344 217.0625 C 184.320312 216.753906 184.148438 216.433594 184.007812 216.09375 C 183.867188 215.753906 183.761719 215.402344 183.691406 215.042969 C 183.621094 214.683594 183.585938 214.320312 183.585938 213.953125 Z M 183.585938 181.710938 " fill-opacity="1" fill-rule="evenodd"/></g></svg>